#!OML:ASF H:\Pregnant\Project 1\Capture day 1\Session 1\femalepreg.ASF
:FULLY-SPECIFIED
:DEGREES
2146
root 1.72249 12.5596 23.8254 -52.7861 6.65334 180.765
lowerback -9.06876 -1.093 -3.73384
upperback -5.55428 -0.894411 -0.513791
thorax -0.625685 -0.222879 1.48849
lowerneck -36.8012 4.23058 4.24033
upperneck 20.0681 3.7354 0.0669401
head 12.6683 2.03154 0.132559
rclavicle 1.55052e-014 1.13307e-014
rhumerus 63.6669 -22.0916 -1.30327
rradius 41.6817
rwrist -30.0443
rhand -48.4761 -42.7365
rfingers 7.12502
rthumb -21.1258 -71.6056
lclavicle 1.55052e-014 1.13307e-014
lhumerus 77.5414 11.7217 45.4191
lradius 29.4769
lwrist 14.0464
lhand -57.5062 -393.768
lfingers 7.12502
lthumb -29.7747 -6.14011
rfemur -133.128 -44.666 -13.008
rtibia 45.285
rfoot -20.9804 -37.3316
rtoes -20.6974
lfemur -120.292 46.9024 22.3828
ltibia 37.0175
lfoot -34.1439 47.4581
ltoes -14.4756
2147
root 1.72278 12.583 23.8564 -52.6364 6.65131 180.952
lowerback -9.20377 -1.05736 -3.81295
upperback -5.62867 -0.829939 -0.526302
thorax -0.632007 -0.184197 1.52427
lowerneck -36.9948 4.20875 4.13246
upperneck 20.0397 3.75114 0.0677285
head 12.6858 2.0288 0.15541
rclavicle -3.37934e-015 1.00386e-014
rhumerus 63.9151 -22.0981 -1.49768
rradius 41.4866
rwrist -29.7791
rhand -47.9759 -42.1586
rfingers 7.12502
rthumb -20.6453 -71.0806
lclavicle -3.37934e-015 1.00386e-014
lhumerus 77.4415 11.7169 45.025
lradius 29.4443
lwrist 14.5393
lhand -57.3642 -392.679
lfingers 7.12502
lthumb -29.6391 -5.02704
rfemur -131.468 -45.1559 -15.1564
rtibia 44.5346
rfoot -21.8981 -38.5646
rtoes -19.5106
lfemur -127.089 45.5022 12.3993
ltibia 36.4055
lfoot -29.2439 41.5536
ltoes -11.2545
2148
root 1.72322 12.6069 23.887 -52.4999 6.64258 181.134
lowerback -9.3337 -1.02241 -3.88227
upperback -5.70072 -0.767325 -0.536839
thorax -0.638867 -0.146723 1.55664
lowerneck -37.1705 4.18673 4.02237
upperneck 20.025 3.76706 0.0759849
head 12.7056 2.02718 0.181481
rclavicle -1.66979e-014 -6.70898e-015
rhumerus 64.1875 -22.0923 -1.73046
rradius 41.306
rwrist -29.5988
rhand -47.4945 -41.5355
rfingers 7.12502
rthumb -20.1826 -70.5071
lclavicle -1.66979e-014 -6.70898e-015
lhumerus 77.2918 11.6807 44.559
lradius 29.4461
lwrist 15.1148
lhand -57.215 -391.858
lfingers 7.12502
lthumb -29.4968 -4.18035
rfemur -129.549 -45.662 -17.6002
rtibia 43.7633
rfoot -23.0894 -39.8969
rtoes -18.1605
lfemur -133.371 43.2302 2.85025
ltibia 35.7714
lfoot -25.0707 35.3044
ltoes -7.68308
2149
root 1.72378 12.6312 23.9173 -52.3804 6.62626 181.311
lowerback -9.45787 -0.986799 -3.94408
upperback -5.77024 -0.704762 -0.54385
thorax -0.646476 -0.109511 1.58862
lowerneck -37.3239 4.1608 3.90437
upperneck 20.0208 3.77907 0.0990644
head 12.7256 2.02558 0.213631
rclavicle 9.93923e-016 -8.84592e-015
rhumerus 64.4807 -22.0647 -1.98904
rradius 41.1422
rwrist -29.5387
rhand -47.0181 -40.8911
rfingers 7.12502
rthumb -19.7247 -69.9103
lclavicle 9.93923e-016 -8.84592e-015
lhumerus 77.1037 11.6084 44.0721
lradius 29.4661
lwrist 15.6797
lhand -57.0788 -391.265
lfingers 7.12502
lthumb -29.3667 -3.56453
rfemur -127.33 -46.1709 -20.3895
rtibia 42.9721
rfoot -24.6334 -41.3225
rtoes -16.5968
lfemur -138.922 40.1538 -6.08336
ltibia 35.107
lfoot -21.3342 28.782
ltoes -3.7399
2150
root 1.72427 12.6557 23.9473 -52.2748 6.60193 181.476
lowerback -9.58052 -0.951083 -3.99295
upperback -5.84065 -0.642963 -0.548392
thorax -0.656055 -0.0728165 1.61599
lowerneck -37.441 4.13208 3.79002
upperneck 20.0168 3.78433 0.13342
head 12.7394 2.02326 0.247762
rclavicle -3.47873e-015 5.76476e-015
rhumerus 64.7894 -22.0036 -2.28087
rradius 40.9918
rwrist -29.5793
rhand -46.5409 -40.2352
rfingers 7.12502
rthumb -19.2659 -69.3009
lclavicle -3.47873e-015 5.76476e-015
lhumerus 76.8918 11.4941 43.6134
lradius 29.4877
lwrist 16.1442
lhand -56.9606 -390.736
lfingers 7.12502
lthumb -29.2539 -3.01598
rfemur -124.758 -46.6721 -23.5889
rtibia 42.1657
rfoot -26.6304 -42.8371
rtoes -14.7747
lfemur -143.641 36.3623 -14.3234
ltibia 34.4061
lfoot -17.7973 22.0572
ltoes 0.537623
2151
root 1.7247 12.6802 23.9771 -52.1824 6.57454 181.628
lowerback -9.7011 -0.91755 -4.0318
upperback -5.91371 -0.584604 -0.554525
thorax -0.669554 -0.0377896 1.63592
lowerneck -37.5249 4.10496 3.6904
upperneck 20.02 3.78376 0.175211
head 12.7509 2.02095 0.280964
rclavicle -1.08338e-014 -6.55989e-015
rhumerus 65.1185 -21.9085 -2.62669
rradius 40.8456
rwrist -29.7194
rhand -46.0335 -39.5435
rfingers 7.12502
rthumb -18.7779 -68.6571
lclavicle -1.08338e-014 -6.55989e-015
lhumerus 76.6601 11.3407 43.2034
lradius 29.5088
lwrist 16.4639
lhand -56.8791 -390.224
lfingers 7.12502
lthumb -29.176 -2.49112
rfemur -121.783 -47.1422 -27.268
rtibia 41.3483
rfoot -29.2157 -44.4114
rtoes -12.6181
lfemur -147.501 31.9573 -21.8768
ltibia 33.6656
lfoot -14.2792 15.1995
ltoes 5.11633
